<svg xmlns="http://www.w3.org/2000/svg" xmlns:xlink="http://www.w3.org/1999/xlink" width="500" zoomAndPan="magnify" viewBox="0 0 375 374.999991" height="500" preserveAspectRatio="xMidYMid meet" version="1.2"><defs><clipPath id="ecfb78b9f7"><path d="M 9.886719 0 L 365.25 0 L 365.25 375 L 9.886719 375 Z M 9.886719 0 "/></clipPath></defs><g id="f50150abb0"><g clip-rule="nonzero" clip-path="url(#ecfb78b9f7)"><path style=" stroke:none;fill-rule:nonzero;fill:#4876ff;fill-opacity:1;" d="M 365.175781 142.398438 L 365.175781 304.0625 C 365.175781 313.585938 362.925781 322.734375 359.476562 330.984375 C 356.027344 339.832031 350.628906 347.78125 344.257812 354.078125 C 337.582031 360.753906 330.007812 365.777344 321.160156 369.601562 C 312.613281 373.050781 303.464844 375 293.941406 375 L 172.464844 375 L 172.464844 283.21875 L 143.972656 283.21875 C 138.273438 283.21875 133.25 278.496094 133.25 272.496094 C 133.25 269.945312 134.523438 267.398438 136.097656 265.523438 L 178.839844 209.507812 C 182.664062 204.785156 189.261719 203.808594 194.0625 207.632812 C 195.035156 208.234375 195.636719 208.910156 196.3125 209.882812 L 239.351562 266.195312 C 243.175781 270.921875 242.203125 277.59375 237.476562 281.042969 C 235.601562 282.617188 233.351562 283.292969 230.804688 283.292969 L 202.609375 283.292969 L 202.609375 345.007812 L 294.015625 345.007812 C 299.714844 345.007812 304.738281 343.730469 309.839844 341.855469 C 314.5625 339.980469 318.984375 336.757812 322.808594 333.007812 C 326.933594 329.183594 329.785156 324.761719 331.957031 319.734375 C 333.832031 315.011719 334.808594 309.613281 334.808594 304.214844 L 334.808594 142.398438 C 334.808594 139.847656 334.507812 137.671875 334.207031 135.121094 C 333.609375 132.875 332.632812 130.398438 331.359375 128.148438 C 330.082031 126.273438 328.808594 124.023438 326.933594 121.851562 C 325.058594 119.976562 323.109375 118.027344 320.9375 116.453125 L 216.558594 39.21875 C 208.683594 33.21875 198.183594 30.070312 187.460938 30.070312 C 182.0625 30.070312 176.738281 31.042969 171.640625 32.617188 C 166.917969 34.191406 162.492188 36.441406 158.667969 39.292969 L 54.289062 116.527344 C 52.039062 118.101562 50.164062 119.976562 48.289062 121.925781 L 47.992188 121.925781 C 46.414062 123.800781 45.140625 126.050781 43.867188 128.222656 C 42.589844 130.398438 41.617188 132.949219 41.015625 135.199219 C 40.417969 137.746094 40.042969 139.921875 40.042969 142.472656 L 40.042969 304.140625 C 40.042969 309.539062 41.316406 314.863281 43.191406 319.660156 C 45.441406 324.761719 48.289062 329.183594 52.039062 332.933594 C 55.789062 336.683594 60.589844 339.90625 65.3125 341.78125 C 70.035156 343.65625 75.433594 344.929688 81.132812 344.929688 L 142.546875 344.929688 L 142.546875 374.925781 L 81.058594 374.925781 C 71.234375 374.925781 62.085938 373.050781 53.839844 369.527344 C 44.992188 365.703125 37.417969 360.679688 30.742188 354.003906 C 24.070312 347.707031 19.046875 339.757812 15.222656 330.910156 C 11.773438 322.660156 9.824219 313.511719 9.824219 303.988281 L 9.824219 142.320312 C 9.824219 137.597656 10.421875 132.5 11.699219 127.773438 C 12.972656 123.050781 14.546875 118.625 17.097656 114.203125 C 19.347656 110.078125 22.195312 105.953125 25.34375 102.203125 C 28.496094 98.378906 32.019531 95.230469 36.066406 92.082031 L 140.597656 15.222656 C 147.269531 10.121094 154.84375 6.375 162.71875 3.824219 C 170.589844 1.273438 179.140625 0 187.386719 0 C 204.183594 0 220.90625 5.097656 234.554688 15.222656 L 338.632812 92.082031 C 342.757812 95.230469 346.503906 98.378906 349.730469 102.203125 C 352.878906 105.652344 355.730469 109.777344 357.976562 114.203125 C 360.226562 118.625 362.101562 123.050781 363.378906 127.773438 C 364.578125 132.574219 365.175781 137.597656 365.175781 142.398438 Z M 68.761719 141.722656 L 98.832031 141.722656 L 98.832031 171.789062 L 68.761719 171.789062 Z M 109.253906 141.722656 L 139.320312 141.722656 L 139.320312 171.789062 L 109.253906 171.789062 Z M 68.761719 181.613281 L 98.832031 181.613281 L 98.832031 211.984375 L 68.761719 211.984375 Z M 109.253906 181.613281 L 139.320312 181.613281 L 139.320312 211.984375 L 109.253906 211.984375 Z M 235.828125 141.722656 L 265.898438 141.722656 L 265.898438 171.789062 L 235.828125 171.789062 Z M 276.320312 141.722656 L 306.390625 141.722656 L 306.390625 171.789062 L 276.320312 171.789062 Z M 235.828125 181.613281 L 265.898438 181.613281 L 265.898438 211.984375 L 235.828125 211.984375 Z M 276.320312 181.613281 L 306.390625 181.613281 L 306.390625 211.984375 L 276.320312 211.984375 Z M 276.320312 181.613281 "/></g></g></svg>